# This file uses centimeters as units for non-parametric coordinates.

mtllib gear.mtl
g default
v 0.259511 0.188546 -0.077798
v 0.099124 0.305074 -0.077798
v -0.099125 0.305074 -0.077798
v -0.259511 0.188546 -0.077798
v -0.320774 -0.000000 -0.077798
v -0.259511 -0.188546 -0.077798
v -0.099124 -0.305074 -0.077798
v 0.099125 -0.305074 -0.077798
v 0.259511 -0.188546 -0.077798
v 0.320774 -0.000000 -0.077798
v 0.389267 0.282819 -0.077798
v 0.148687 0.457611 -0.077798
v -0.148687 0.457611 -0.077798
v -0.389267 0.282819 -0.077798
v -0.481160 -0.000000 -0.077798
v -0.389267 -0.282819 -0.077798
v -0.148687 -0.457611 -0.077798
v 0.148687 -0.457611 -0.077798
v 0.389267 -0.282819 -0.077798
v 0.481160 -0.000000 -0.077798
v 0.519023 0.377092 -0.077798
v 0.198249 0.610148 -0.077798
v -0.198249 0.610148 -0.077798
v -0.519023 0.377092 -0.077798
v -0.641547 -0.000000 -0.077798
v -0.519023 -0.377092 -0.077798
v -0.198249 -0.610148 -0.077798
v 0.198249 -0.610148 -0.077798
v 0.519023 -0.377092 -0.077798
v 0.641547 -0.000000 -0.077798
v 0.519023 0.377092 0.077798
v 0.198249 0.610148 0.077798
v -0.198249 0.610148 0.077798
v -0.519023 0.377092 0.077798
v -0.641547 -0.000000 0.077798
v -0.519023 -0.377092 0.077798
v -0.198249 -0.610148 0.077798
v 0.198249 -0.610148 0.077798
v 0.519023 -0.377092 0.077798
v 0.641547 0.000000 0.077798
v 0.389267 0.282819 0.077798
v 0.148687 0.457611 0.077798
v -0.148687 0.457611 0.077798
v -0.389267 0.282819 0.077798
v -0.481160 -0.000000 0.077798
v -0.389267 -0.282819 0.077798
v -0.148687 -0.457611 0.077798
v 0.148687 -0.457611 0.077798
v 0.389267 -0.282819 0.077798
v 0.481160 0.000000 0.077798
v 0.259511 0.188546 0.077798
v 0.099124 0.305074 0.077798
v -0.099125 0.305074 0.077798
v -0.259511 0.188546 0.077798
v -0.320774 -0.000000 0.077798
v -0.259511 -0.188546 0.077798
v -0.099124 -0.305074 0.077798
v 0.099125 -0.305074 0.077798
v 0.259511 -0.188546 0.077798
v 0.320774 0.000000 0.077798
v 0.626593 0.562257 -0.068356
v 0.344750 0.767028 -0.068356
v 0.344750 0.767028 0.068356
v 0.626593 0.562257 0.068356
v -0.344750 0.767028 -0.068356
v -0.626593 0.562257 -0.068356
v -0.626593 0.562257 0.068356
v -0.344750 0.767028 0.068356
v -0.839660 -0.093497 -0.068356
v -0.732006 -0.424824 -0.068356
v -0.732006 -0.424824 0.068356
v -0.839660 -0.093497 0.068356
v -0.174189 -0.830101 -0.068356
v 0.174189 -0.830101 -0.068356
v 0.174189 -0.830101 0.068356
v -0.174189 -0.830101 0.068356
v 0.732006 -0.424823 -0.068356
v 0.839660 -0.093497 -0.068356
v 0.839660 -0.093497 0.068356
v 0.732006 -0.424823 0.068356
vt 0.563204 0.110329
vt 0.524142 0.081949
vt 0.475858 0.081949
vt 0.436796 0.110329
vt 0.421875 0.156250
vt 0.436796 0.202171
vt 0.475858 0.230551
vt 0.524142 0.230551
vt 0.563204 0.202171
vt 0.578125 0.156250
vt 0.594807 0.087369
vt 0.536213 0.044798
vt 0.463787 0.044798
vt 0.405193 0.087369
vt 0.382812 0.156250
vt 0.405193 0.225131
vt 0.463787 0.267702
vt 0.536213 0.267702
vt 0.594807 0.225131
vt 0.617188 0.156250
vt 0.626409 0.064409
vt 0.548284 0.007647
vt 0.451716 0.007647
vt 0.373591 0.064409
vt 0.343750 0.156250
vt 0.373591 0.248091
vt 0.451716 0.304853
vt 0.548284 0.304853
vt 0.626409 0.248091
vt 0.656250 0.156250
vt 0.375000 0.312500
vt 0.400000 0.312500
vt 0.425000 0.312500
vt 0.450000 0.312500
vt 0.475000 0.312500
vt 0.500000 0.312500
vt 0.525000 0.312500
vt 0.550000 0.312500
vt 0.575000 0.312500
vt 0.600000 0.312500
vt 0.625000 0.312500
vt 0.375000 0.688440
vt 0.400000 0.688440
vt 0.425000 0.688440
vt 0.450000 0.688440
vt 0.475000 0.688440
vt 0.500000 0.688440
vt 0.525000 0.688440
vt 0.550000 0.688440
vt 0.575000 0.688440
vt 0.600000 0.688440
vt 0.625000 0.688440
vt 0.626409 0.751909
vt 0.548284 0.695147
vt 0.451716 0.695147
vt 0.373591 0.751909
vt 0.343750 0.843750
vt 0.373591 0.935591
vt 0.451716 0.992353
vt 0.548284 0.992353
vt 0.626409 0.935591
vt 0.656250 0.843750
vt 0.594807 0.774869
vt 0.536213 0.732298
vt 0.463787 0.732298
vt 0.405193 0.774869
vt 0.382812 0.843750
vt 0.405193 0.912631
vt 0.463787 0.955202
vt 0.536213 0.955202
vt 0.594807 0.912631
vt 0.617188 0.843750
vt 0.563204 0.797829
vt 0.524142 0.769449
vt 0.475858 0.769449
vt 0.436796 0.797829
vt 0.421875 0.843750
vt 0.436796 0.889671
vt 0.475858 0.918051
vt 0.524142 0.918051
vt 0.563204 0.889671
vt 0.578125 0.843750
vt 0.375000 0.312500
vt 0.400000 0.312500
vt 0.400000 0.688440
vt 0.375000 0.688440
vt 0.425000 0.312500
vt 0.450000 0.312500
vt 0.450000 0.688440
vt 0.425000 0.688440
vt 0.475000 0.312500
vt 0.500000 0.312500
vt 0.500000 0.688440
vt 0.475000 0.688440
vt 0.525000 0.312500
vt 0.550000 0.312500
vt 0.550000 0.688440
vt 0.525000 0.688440
vt 0.575000 0.312500
vt 0.600000 0.312500
vt 0.600000 0.688440
vt 0.575000 0.688440
vn 0.000000 0.000000 -1.000000
vn 0.000000 -0.000000 -1.000000
vn 0.000000 0.000000 -1.000000
vn 0.000000 -0.000000 -1.000000
vn 0.000000 -0.000000 -1.000000
vn 0.000000 0.000000 -1.000000
vn 0.000000 -0.000000 -1.000000
vn 0.000000 -0.000000 -1.000000
vn 0.000000 -0.000000 -1.000000
vn 0.000000 -0.000000 -1.000000
vn 0.000000 -0.000000 -1.000000
vn 0.000000 -0.000000 -1.000000
vn 0.000000 -0.000000 -1.000000
vn 0.000000 0.000000 -1.000000
vn 0.000000 0.000000 -1.000000
vn 0.000000 0.000000 -1.000000
vn 0.000000 0.000000 -1.000000
vn 0.000000 0.000000 -1.000000
vn 0.000000 -0.000000 -1.000000
vn 0.000000 -0.000000 -1.000000
vn 0.012155 0.016729 -0.999786
vn 0.012232 0.016836 -0.999783
vn -0.012155 0.016729 -0.999786
vn -0.012232 0.016836 -0.999783
vn -0.019456 -0.006322 -0.999791
vn -0.019653 -0.006386 -0.999786
vn 0.000000 -0.020450 -0.999791
vn 0.000000 -0.020450 -0.999791
vn 0.019653 -0.006386 -0.999786
vn 0.019456 -0.006322 -0.999791
vn 0.587785 0.809017 -0.000000
vn 0.587785 0.809017 -0.000000
vn 0.587785 0.809017 -0.000000
vn 0.587785 0.809017 -0.000000
vn -0.000000 1.000000 -0.000000
vn -0.000000 1.000000 -0.000000
vn -0.000000 1.000000 -0.000000
vn -0.000000 1.000000 -0.000000
vn -0.587785 0.809017 -0.000000
vn -0.587785 0.809017 -0.000000
vn -0.587785 0.809017 -0.000000
vn -0.587785 0.809017 -0.000000
vn -0.951057 0.309017 -0.000000
vn -0.951057 0.309017 -0.000000
vn -0.951057 0.309017 -0.000000
vn -0.951057 0.309017 -0.000000
vn -0.951056 -0.309017 0.000000
vn -0.951056 -0.309017 0.000000
vn -0.951056 -0.309017 0.000000
vn -0.951056 -0.309017 0.000000
vn -0.587785 -0.809017 0.000000
vn -0.587785 -0.809017 0.000000
vn -0.587785 -0.809017 0.000000
vn -0.587785 -0.809017 0.000000
vn 0.000000 -1.000000 0.000000
vn 0.000000 -1.000000 0.000000
vn 0.000000 -1.000000 0.000000
vn 0.000000 -1.000000 0.000000
vn 0.587785 -0.809017 0.000000
vn 0.587785 -0.809017 0.000000
vn 0.587785 -0.809017 0.000000
vn 0.587785 -0.809017 0.000000
vn 0.951057 -0.309017 0.000000
vn 0.951057 -0.309017 0.000000
vn 0.951057 -0.309017 0.000000
vn 0.951057 -0.309017 0.000000
vn 0.951057 0.309017 -0.000000
vn 0.951057 0.309017 -0.000000
vn 0.951057 0.309017 -0.000000
vn 0.951057 0.309017 -0.000000
vn 0.012232 0.016836 0.999783
vn 0.012155 0.016729 0.999786
vn 0.000000 0.000000 1.000000
vn 0.000000 0.000000 1.000000
vn -0.012155 0.016729 0.999786
vn 0.000000 0.000000 1.000000
vn -0.012232 0.016836 0.999783
vn 0.000000 0.000000 1.000000
vn -0.019456 -0.006322 0.999791
vn 0.000000 0.000000 1.000000
vn -0.019653 -0.006386 0.999786
vn 0.000000 -0.000000 1.000000
vn 0.000000 -0.020450 0.999791
vn 0.000000 -0.000000 1.000000
vn 0.000000 -0.020450 0.999791
vn 0.000000 0.000000 1.000000
vn 0.019653 -0.006386 0.999786
vn 0.000000 0.000000 1.000000
vn 0.019456 -0.006322 0.999791
vn 0.000000 0.000000 1.000000
vn 0.000000 -0.000000 1.000000
vn 0.000000 0.000000 1.000000
vn 0.000000 -0.000000 1.000000
vn 0.000000 -0.000000 1.000000
vn 0.000000 0.000000 1.000000
vn 0.000000 -0.000000 1.000000
vn 0.000000 -0.000000 1.000000
vn 0.000000 0.000000 1.000000
vn 0.000000 0.000000 1.000000
vn 0.000000 0.000000 1.000000
vn 0.026026 0.035822 -0.999019
vn 0.026026 0.035822 -0.999019
vn -0.730872 0.682515 -0.000000
vn -0.730872 0.682515 -0.000000
vn -0.730872 0.682515 -0.000000
vn -0.730872 0.682515 -0.000000
vn 0.026026 0.035822 0.999019
vn 0.026026 0.035822 0.999019
vn 0.864676 -0.502330 0.000000
vn 0.864676 -0.502330 0.000000
vn 0.864676 -0.502330 0.000000
vn 0.864676 -0.502330 0.000000
vn -0.026026 0.035822 -0.999019
vn -0.026026 0.035822 -0.999019
vn -0.864676 -0.502331 0.000000
vn -0.864676 -0.502331 0.000000
vn -0.864676 -0.502331 0.000000
vn -0.864676 -0.502331 0.000000
vn -0.026026 0.035822 0.999019
vn -0.026026 0.035822 0.999019
vn 0.730871 0.682515 -0.000000
vn 0.730871 0.682515 -0.000000
vn 0.730871 0.682515 -0.000000
vn 0.730871 0.682515 -0.000000
vn -0.041283 -0.013414 -0.999057
vn -0.041283 -0.013414 -0.999057
vn 0.218685 -0.975795 0.000000
vn 0.218685 -0.975795 0.000000
vn 0.218685 -0.975796 0.000000
vn 0.218685 -0.975796 0.000000
vn -0.041283 -0.013414 0.999057
vn -0.041283 -0.013414 0.999057
vn -0.426794 0.904349 -0.000000
vn -0.426794 0.904349 -0.000000
vn -0.426794 0.904349 -0.000000
vn -0.426794 0.904349 -0.000000
vn 0.000000 -0.042887 -0.999080
vn 0.000000 -0.042887 -0.999080
vn 0.994070 -0.108739 0.000000
vn 0.994070 -0.108739 0.000000
vn 0.994070 -0.108739 0.000000
vn 0.994070 -0.108739 0.000000
vn 0.000000 -0.042887 0.999080
vn 0.000000 -0.042887 0.999080
vn -0.994070 -0.108739 0.000000
vn -0.994070 -0.108739 0.000000
vn -0.994070 -0.108739 0.000000
vn -0.994070 -0.108739 0.000000
vn 0.041283 -0.013414 -0.999057
vn 0.041283 -0.013414 -0.999057
vn 0.426794 0.904349 -0.000000
vn 0.426794 0.904349 -0.000000
vn 0.426794 0.904349 -0.000000
vn 0.426794 0.904349 -0.000000
vn 0.041283 -0.013414 0.999057
vn 0.041283 -0.013414 0.999057
vn -0.218684 -0.975796 0.000000
vn -0.218684 -0.975796 0.000000
vn -0.218684 -0.975796 0.000000
vn -0.218684 -0.975796 0.000000
vn -0.587785 -0.809017 0.000000
vn -0.587785 -0.809017 0.000000
vn -0.587785 -0.809017 0.000000
vn -0.587785 -0.809017 0.000000
vn -0.951057 -0.309017 0.000000
vn -0.951057 -0.309017 0.000000
vn -0.951057 -0.309017 0.000000
vn -0.951057 -0.309017 0.000000
vn -0.951057 0.309017 -0.000000
vn -0.951057 0.309017 -0.000000
vn -0.951057 0.309017 -0.000000
vn -0.951057 0.309017 -0.000000
vn -0.587785 0.809017 -0.000000
vn -0.587785 0.809017 -0.000000
vn -0.587785 0.809017 -0.000000
vn -0.587785 0.809017 -0.000000
vn -0.000000 1.000000 -0.000000
vn -0.000000 1.000000 -0.000000
vn -0.000000 1.000000 -0.000000
vn -0.000000 1.000000 -0.000000
vn 0.587785 0.809017 -0.000000
vn 0.587785 0.809017 -0.000000
vn 0.587785 0.809017 -0.000000
vn 0.587785 0.809017 -0.000000
vn 0.951056 0.309017 -0.000000
vn 0.951056 0.309017 -0.000000
vn 0.951056 0.309017 -0.000000
vn 0.951056 0.309017 -0.000000
vn 0.951057 -0.309017 0.000000
vn 0.951057 -0.309017 0.000000
vn 0.951057 -0.309017 0.000000
vn 0.951057 -0.309017 0.000000
vn 0.587785 -0.809017 0.000000
vn 0.587785 -0.809017 0.000000
vn 0.587785 -0.809017 0.000000
vn 0.587785 -0.809017 0.000000
vn 0.000000 -1.000000 0.000000
vn 0.000000 -1.000000 0.000000
vn 0.000000 -1.000000 0.000000
vn 0.000000 -1.000000 0.000000
s 1
g pCylinder1
usemtl initialShadingGroup
f 1/1/1 2/2/2 12/12/3 11/11/4
f 2/2/2 3/3/5 13/13/6 12/12/3
f 3/3/5 4/4/7 14/14/8 13/13/6
f 4/4/7 5/5/9 15/15/10 14/14/8
f 5/5/9 6/6/11 16/16/12 15/15/10
f 6/6/11 7/7/13 17/17/14 16/16/12
f 7/7/13 8/8/15 18/18/16 17/17/14
f 8/8/15 9/9/17 19/19/18 18/18/16
f 9/9/17 10/10/19 20/20/20 19/19/18
f 10/10/19 1/1/1 11/11/4 20/20/20
f 11/11/4 12/12/3 22/22/21 21/21/22
f 12/12/3 13/13/6 23/23/23 22/22/21
f 13/13/6 14/14/8 24/24/24 23/23/23
f 14/14/8 15/15/10 25/25/25 24/24/24
f 15/15/10 16/16/12 26/26/26 25/25/25
f 16/16/12 17/17/14 27/27/27 26/26/26
f 17/17/14 18/18/16 28/28/28 27/27/27
f 18/18/16 19/19/18 29/29/29 28/28/28
f 19/19/18 20/20/20 30/30/30 29/29/29
f 20/20/20 11/11/4 21/21/22 30/30/30
s off
f 61/83/31 62/84/32 63/85/33 64/86/34
f 22/32/35 23/33/36 33/44/37 32/43/38
f 65/87/39 66/88/40 67/89/41 68/90/42
f 24/34/43 25/35/44 35/46/45 34/45/46
f 69/91/47 70/92/48 71/93/49 72/94/50
f 26/36/51 27/37/52 37/48/53 36/47/54
f 73/95/55 74/96/56 75/97/57 76/98/58
f 28/38/59 29/39/60 39/50/61 38/49/62
f 77/99/63 78/100/64 79/101/65 80/102/66
f 30/40/67 21/41/68 31/52/69 40/51/70
s 2
f 31/61/71 32/60/72 42/70/73 41/71/74
f 32/60/72 33/59/75 43/69/76 42/70/73
f 33/59/75 34/58/77 44/68/78 43/69/76
f 34/58/77 35/57/79 45/67/80 44/68/78
f 35/57/79 36/56/81 46/66/82 45/67/80
f 36/56/81 37/55/83 47/65/84 46/66/82
f 37/55/83 38/54/85 48/64/86 47/65/84
f 38/54/85 39/53/87 49/63/88 48/64/86
f 39/53/87 40/62/89 50/72/90 49/63/88
f 40/62/89 31/61/71 41/71/74 50/72/90
f 41/71/74 42/70/73 52/80/91 51/81/92
f 42/70/73 43/69/76 53/79/93 52/80/91
f 43/69/76 44/68/78 54/78/94 53/79/93
f 44/68/78 45/67/80 55/77/95 54/78/94
f 45/67/80 46/66/82 56/76/96 55/77/95
f 46/66/82 47/65/84 57/75/97 56/76/96
f 47/65/84 48/64/86 58/74/98 57/75/97
f 48/64/86 49/63/88 59/73/99 58/74/98
f 49/63/88 50/72/90 60/82/100 59/73/99
f 50/72/90 41/71/74 51/81/92 60/82/100
s 1
f 21/31/22 22/32/21 62/84/101 61/83/102
s off
f 22/32/103 32/43/104 63/85/105 62/84/106
s 2
f 32/43/72 31/42/71 64/86/107 63/85/108
s off
f 31/42/109 21/31/110 61/83/111 64/86/112
s 1
f 23/33/23 24/34/24 66/88/113 65/87/114
s off
f 24/34/115 34/45/116 67/89/117 66/88/118
s 2
f 34/45/77 33/44/75 68/90/119 67/89/120
s off
f 33/44/121 23/33/122 65/87/123 68/90/124
s 1
f 25/35/25 26/36/26 70/92/125 69/91/126
s off
f 26/36/127 36/47/128 71/93/129 70/92/130
s 2
f 36/47/81 35/46/79 72/94/131 71/93/132
s off
f 35/46/133 25/35/134 69/91/135 72/94/136
s 1
f 27/37/27 28/38/28 74/96/137 73/95/138
s off
f 28/38/139 38/49/140 75/97/141 74/96/142
s 2
f 38/49/85 37/48/83 76/98/143 75/97/144
s off
f 37/48/145 27/37/146 73/95/147 76/98/148
s 1
f 29/39/29 30/40/30 78/100/149 77/99/150
s off
f 30/40/151 40/51/152 79/101/153 78/100/154
s 2
f 40/51/89 39/50/87 80/102/155 79/101/156
s off
f 39/50/157 29/39/158 77/99/159 80/102/160
f 2/2/161 1/1/162 51/81/163 52/80/164
f 1/1/165 10/10/166 60/82/167 51/81/168
f 10/10/169 9/9/170 59/73/171 60/82/172
f 9/9/173 8/8/174 58/74/175 59/73/176
f 8/8/177 7/7/178 57/75/179 58/74/180
f 7/7/181 6/6/182 56/76/183 57/75/184
f 6/6/185 5/5/186 55/77/187 56/76/188
f 5/5/189 4/4/190 54/78/191 55/77/192
f 4/4/193 3/3/194 53/79/195 54/78/196
f 3/3/197 2/2/198 52/80/199 53/79/200
